<?xml version="1.0" standalone="no"?>
<!DOCTYPE svg PUBLIC "-//W3C//DTD SVG 20010904//EN"
 "http://www.w3.org/TR/2001/REC-SVG-20010904/DTD/svg10.dtd">
<svg version="1.0" xmlns="http://www.w3.org/2000/svg"
 width="300.000000pt" height="328.000000pt" viewBox="0 0 300.000000 328.000000"
 preserveAspectRatio="xMidYMid meet">
<metadata>
Created by potrace 1.10, written by Peter Selinger 2001-2011
</metadata>
<g transform="translate(0.000000,328.000000) scale(0.100000,-0.100000)"
fill="#000000" stroke="none">
<path d="M620 3158 c-25 -35 -126 -144 -225 -243 -201 -200 -249 -258 -296
-359 -27 -57 -33 -83 -36 -160 -4 -76 -2 -100 16 -147 25 -67 91 -138 158
-170 90 -44 226 -34 302 21 l40 30 7 -35 c14 -76 -29 -203 -96 -278 l-32 -37
216 0 216 0 -36 47 c-19 25 -43 62 -53 82 -38 74 -63 195 -45 214 3 3 24 -8
47 -24 56 -41 137 -63 201 -55 141 18 246 125 275 278 12 65 7 108 -21 195
-33 106 -88 176 -284 366 -101 99 -211 215 -245 258 -35 43 -63 79 -64 79 0 0
-21 -28 -45 -62z m97 -61 c36 -47 114 -128 282 -292 183 -178 232 -261 239
-402 6 -102 -15 -167 -76 -234 -52 -58 -113 -84 -198 -83 -51 0 -71 6 -127 38
-76 42 -98 39 -116 -17 -15 -46 1 -123 43 -208 19 -37 31 -70 28 -73 -3 -3
-57 -6 -120 -6 -130 0 -123 -10 -76 100 48 112 34 230 -27 230 -9 0 -41 -12
-70 -27 -68 -36 -181 -39 -244 -8 -172 85 -206 307 -78 502 20 32 128 150 238
263 111 113 209 217 219 233 25 37 46 34 83 -16z"/>
<path d="M2557 3089 c-90 -21 -163 -77 -206 -158 -33 -62 -55 -171 -33 -157 7
4 12 12 12 18 0 5 7 25 15 44 8 19 22 49 30 68 19 42 78 101 128 127 133 69
307 -1 375 -151 34 -75 36 -199 5 -281 -27 -70 -74 -150 -126 -214 -45 -55
-448 -465 -458 -465 -11 0 -417 414 -468 478 -155 193 -182 393 -72 538 54 72
118 108 201 112 138 8 226 -52 294 -202 20 -44 38 -77 40 -75 8 8 -14 104 -34
143 -32 67 -77 113 -138 143 -48 24 -69 28 -137 28 -132 -1 -225 -58 -285
-176 -64 -126 -63 -232 5 -376 54 -116 86 -155 315 -388 119 -121 230 -238
247 -259 l32 -39 28 34 c15 19 124 133 243 254 231 235 293 316 343 444 87
220 -17 451 -228 506 -66 17 -73 17 -128 4z"/>
<path d="M364 1174 l-311 -377 311 -370 c292 -348 311 -368 326 -350 8 10 146
174 306 363 160 190 292 349 294 354 1 4 -132 170 -296 369 -165 198 -304 366
-309 374 -8 10 -83 -74 -321 -363z m336 289 c8 -10 87 -106 175 -213 89 -107
170 -206 182 -220 93 -109 183 -223 183 -233 0 -7 -33 -50 -73 -97 -40 -47
-119 -142 -176 -210 -58 -69 -130 -154 -160 -190 -31 -36 -76 -89 -100 -118
-25 -28 -50 -52 -57 -52 -7 0 -92 95 -190 212 -99 116 -208 246 -244 288 -110
129 -130 155 -130 165 0 12 96 132 360 450 50 61 113 138 141 173 28 34 56 62
63 62 6 0 18 -8 26 -17z"/>
<path d="M2139 1495 c-161 -52 -237 -195 -190 -358 13 -44 90 -147 91 -121 0
7 -14 42 -32 80 -58 124 -40 239 49 313 104 86 334 81 437 -9 81 -72 101 -200
46 -305 -39 -73 -40 -98 -4 -64 68 62 93 190 58 292 -22 64 -89 130 -162 158
-73 29 -225 36 -293 14z"/>
<path d="M1818 1021 c-72 -28 -123 -75 -155 -139 -25 -51 -28 -68 -28 -157 0
-81 4 -109 21 -146 52 -111 161 -182 284 -183 92 -1 129 9 199 54 34 22 64 40
66 40 3 0 5 -28 5 -62 -1 -75 -29 -152 -84 -227 l-38 -51 212 0 212 0 -31 39
c-70 88 -122 228 -107 288 l7 24 36 -32 c62 -54 115 -71 215 -72 81 0 94 2
156 34 112 57 157 144 155 301 -2 139 -56 230 -168 279 -82 36 -212 34 -244
-5 -10 -11 5 -14 91 -13 87 1 109 -2 143 -20 102 -53 139 -123 137 -256 -2
-104 -26 -171 -79 -217 -52 -46 -96 -60 -189 -60 -95 0 -118 7 -192 57 l-52
36 -25 -23 c-20 -19 -25 -33 -25 -75 0 -55 22 -131 52 -180 37 -61 31 -65 -97
-65 -63 0 -115 2 -115 4 0 2 14 34 31 71 20 44 32 91 36 134 5 58 2 69 -17 94
-12 15 -28 27 -35 27 -7 0 -40 -16 -73 -35 -72 -43 -144 -57 -227 -43 -168 26
-256 182 -214 376 14 66 64 123 136 158 51 24 64 26 130 20 81 -8 97 5 38 30
-46 19 -110 17 -167 -5z"/>
</g>
</svg>
